<svg width="51" height="42" viewBox="0 0 51 42" fill="none" xmlns="http://www.w3.org/2000/svg"><path fill-rule="evenodd" clip-rule="evenodd" d="M39.61 26.2658L49.8478 8.53335L47.2644 7.04181L38.5181 22.1909L25.7308 14.8081L17.2934 29.4222L6.33287 23.0941L0.313721 33.5196L2.89714 35.0111L7.42476 27.1691L18.3853 33.4971L26.8227 18.8831L39.61 26.2658ZM14.6011 20.8815C15.8367 20.8815 16.8384 19.8798 16.8384 18.6442C16.8384 17.4086 15.8367 16.4069 14.6011 16.4069C13.3655 16.4069 12.3638 17.4086 12.3638 18.6442C12.3638 19.8798 13.3655 20.8815 14.6011 20.8815ZM14.6011 23.8646C17.4842 23.8646 19.8215 21.5274 19.8215 18.6442C19.8215 15.7611 17.4842 13.4238 14.6011 13.4238C11.718 13.4238 9.38071 15.7611 9.38071 18.6442C9.38071 21.5274 11.718 23.8646 14.6011 23.8646ZM31.008 32.8138C32.2437 32.8138 33.2453 31.8122 33.2453 30.5765C33.2453 29.3409 32.2437 28.3392 31.008 28.3392C29.7724 28.3392 28.7707 29.3409 28.7707 30.5765C28.7707 31.8122 29.7724 32.8138 31.008 32.8138ZM31.008 35.7969C33.8912 35.7969 36.2284 33.4597 36.2284 30.5765C36.2284 27.6934 33.8912 25.3561 31.008 25.3561C28.1249 25.3561 25.7876 27.6934 25.7876 30.5765C25.7876 33.4597 28.1249 35.7969 31.008 35.7969Z" fill="currentColor"></path><path d="M49.8478 8.53335L50.0093 8.62657L50.1025 8.4651L49.9411 8.37188L49.8478 8.53335ZM39.61 26.2658L39.5168 26.4273L39.6782 26.5205L39.7714 26.3591L39.61 26.2658ZM47.2644 7.04181L47.3576 6.88035L47.1962 6.78712L47.103 6.94859L47.2644 7.04181ZM38.5181 22.1909L38.4249 22.3523L38.5863 22.4456L38.6796 22.2841L38.5181 22.1909ZM25.7308 14.8081L25.824 14.6467L25.6626 14.5535L25.5694 14.7149L25.7308 14.8081ZM17.2934 29.4222L17.2002 29.5836L17.3616 29.6769L17.4549 29.5154L17.2934 29.4222ZM6.33287 23.0941L6.4261 22.9327L6.26463 22.8394L6.17141 23.0009L6.33287 23.0941ZM0.313721 33.5196L0.152257 33.4264L0.0590357 33.5878L0.2205 33.6811L0.313721 33.5196ZM2.89714 35.0111L2.80392 35.1726L2.96538 35.2658L3.0586 35.1044L2.89714 35.0111ZM7.42476 27.1691L7.51798 27.0076L7.35651 26.9144L7.26329 27.0759L7.42476 27.1691ZM18.3853 33.4971L18.2921 33.6586L18.4535 33.7518L18.5467 33.5904L18.3853 33.4971ZM26.8227 18.8831L26.9159 18.7216L26.7545 18.6284L26.6612 18.7899L26.8227 18.8831ZM49.6864 8.44013L39.4485 26.1726L39.7714 26.3591L50.0093 8.62657L49.6864 8.44013ZM47.1712 7.20327L49.7546 8.69481L49.9411 8.37188L47.3576 6.88035L47.1712 7.20327ZM38.6796 22.2841L47.4259 7.13503L47.103 6.94859L38.3566 22.0977L38.6796 22.2841ZM25.6376 14.9696L38.4249 22.3523L38.6113 22.0294L25.824 14.6467L25.6376 14.9696ZM17.4549 29.5154L25.8923 14.9014L25.5694 14.7149L17.1319 29.329L17.4549 29.5154ZM6.23965 23.2556L17.2002 29.5836L17.3866 29.2607L6.4261 22.9327L6.23965 23.2556ZM0.475184 33.6128L6.49434 23.1873L6.17141 23.0009L0.152257 33.4264L0.475184 33.6128ZM2.99036 34.8497L0.406942 33.3581L0.2205 33.6811L2.80392 35.1726L2.99036 34.8497ZM7.26329 27.0759L2.73568 34.9179L3.0586 35.1044L7.58622 27.2623L7.26329 27.0759ZM18.4785 33.3357L7.51798 27.0076L7.33153 27.3305L18.2921 33.6586L18.4785 33.3357ZM26.6612 18.7899L18.2238 33.4039L18.5467 33.5904L26.9842 18.9763L26.6612 18.7899ZM39.7032 26.1044L26.9159 18.7216L26.7295 19.0446L39.5168 26.4273L39.7032 26.1044ZM16.652 18.6442C16.652 19.7769 15.7338 20.6951 14.6011 20.6951V21.068C15.9397 21.068 17.0248 19.9828 17.0248 18.6442H16.652ZM14.6011 16.5934C15.7338 16.5934 16.652 17.5116 16.652 18.6442H17.0248C17.0248 17.3056 15.9397 16.2205 14.6011 16.2205V16.5934ZM12.5502 18.6442C12.5502 17.5116 13.4684 16.5934 14.6011 16.5934V16.2205C13.2625 16.2205 12.1773 17.3056 12.1773 18.6442H12.5502ZM14.6011 20.6951C13.4684 20.6951 12.5502 19.7769 12.5502 18.6442H12.1773C12.1773 19.9828 13.2625 21.068 14.6011 21.068V20.6951ZM19.635 18.6442C19.635 21.4244 17.3813 23.6782 14.6011 23.6782V24.051C17.5872 24.051 20.0079 21.6303 20.0079 18.6442H19.635ZM14.6011 13.6103C17.3813 13.6103 19.635 15.864 19.635 18.6442H20.0079C20.0079 15.6581 17.5872 13.2374 14.6011 13.2374V13.6103ZM9.56716 18.6442C9.56716 15.864 11.8209 13.6103 14.6011 13.6103V13.2374C11.615 13.2374 9.19427 15.6581 9.19427 18.6442H9.56716ZM14.6011 23.6782C11.8209 23.6782 9.56716 21.4244 9.56716 18.6442H9.19427C9.19427 21.6303 11.615 24.051 14.6011 24.051V23.6782ZM33.0589 30.5765C33.0589 31.7092 32.1407 32.6274 31.008 32.6274V33.0003C32.3466 33.0003 33.4318 31.9151 33.4318 30.5765H33.0589ZM31.008 28.5257C32.1407 28.5257 33.0589 29.4439 33.0589 30.5765H33.4318C33.4318 29.2379 32.3466 28.1528 31.008 28.1528V28.5257ZM28.9572 30.5765C28.9572 29.4439 29.8754 28.5257 31.008 28.5257V28.1528C29.6694 28.1528 28.5843 29.2379 28.5843 30.5765H28.9572ZM31.008 32.6274C29.8754 32.6274 28.9572 31.7092 28.9572 30.5765H28.5843C28.5843 31.9151 29.6694 33.0003 31.008 33.0003V32.6274ZM36.042 30.5765C36.042 33.3567 33.7882 35.6105 31.008 35.6105V35.9834C33.9941 35.9834 36.4148 33.5626 36.4148 30.5765H36.042ZM31.008 25.5426C33.7882 25.5426 36.042 27.7964 36.042 30.5765H36.4148C36.4148 27.5904 33.9941 25.1697 31.008 25.1697V25.5426ZM25.9741 30.5765C25.9741 27.7964 28.2279 25.5426 31.008 25.5426V25.1697C28.0219 25.1697 25.6012 27.5904 25.6012 30.5765H25.9741ZM31.008 35.6105C28.2279 35.6105 25.9741 33.3567 25.9741 30.5765H25.6012C25.6012 33.5626 28.0219 35.9834 31.008 35.9834V35.6105Z" fill="currentColor"></path></svg>