<svg width="46" height="42" viewBox="0 0 46 42" fill="none" xmlns="http://www.w3.org/2000/svg"><path fill-rule="evenodd" clip-rule="evenodd" d="M11.9323 16.4069C11.9323 22.1732 16.6068 26.8477 22.3731 26.8477C28.1394 26.8477 32.8138 22.1732 32.8138 16.4069C32.8138 10.6407 28.1394 5.96617 22.3731 5.96617C16.6068 5.96617 11.9323 10.6407 11.9323 16.4069ZM22.3731 2.98309C14.9593 2.98309 8.94923 8.99315 8.94923 16.4069C8.94923 23.8207 14.9593 29.8308 22.3731 29.8308C29.7869 29.8308 35.7969 23.8207 35.7969 16.4069C35.7969 8.99315 29.7869 2.98309 22.3731 2.98309ZM14.9154 32.8138H31.3223V35.7969H14.9154V32.8138ZM28.3392 37.2885H17.8985V40.2715H28.3392V37.2885Z" fill="currentColor"></path><path d="M31.3223 32.8138H31.5087V32.6274H31.3223V32.8138ZM14.9154 32.8138V32.6274H14.7289V32.8138H14.9154ZM31.3223 35.7969V35.9834H31.5087V35.7969H31.3223ZM14.9154 35.7969H14.7289V35.9834H14.9154V35.7969ZM17.8985 37.2885V37.102H17.712V37.2885H17.8985ZM28.3392 37.2885H28.5257V37.102H28.3392V37.2885ZM17.8985 40.2715H17.712V40.458H17.8985V40.2715ZM28.3392 40.2715V40.458H28.5257V40.2715H28.3392ZM22.3731 26.6613C16.7098 26.6613 12.1188 22.0702 12.1188 16.4069H11.7459C11.7459 22.2762 16.5038 27.0341 22.3731 27.0341V26.6613ZM32.6274 16.4069C32.6274 22.0702 28.0364 26.6613 22.3731 26.6613V27.0341C28.2423 27.0341 33.0003 22.2762 33.0003 16.4069H32.6274ZM22.3731 6.15261C28.0364 6.15261 32.6274 10.7436 32.6274 16.4069H33.0003C33.0003 10.5377 28.2423 5.77973 22.3731 5.77973V6.15261ZM12.1188 16.4069C12.1188 10.7436 16.7098 6.15261 22.3731 6.15261V5.77973C16.5038 5.77973 11.7459 10.5377 11.7459 16.4069H12.1188ZM9.13568 16.4069C9.13568 9.09612 15.0623 3.16954 22.3731 3.16954V2.79665C14.8563 2.79665 8.76279 8.89018 8.76279 16.4069H9.13568ZM22.3731 29.6443C15.0623 29.6443 9.13568 23.7178 9.13568 16.4069H8.76279C8.76279 23.9237 14.8563 30.0172 22.3731 30.0172V29.6443ZM35.6105 16.4069C35.6105 23.7178 29.6839 29.6443 22.3731 29.6443V30.0172C29.8898 30.0172 35.9834 23.9237 35.9834 16.4069H35.6105ZM22.3731 3.16954C29.6839 3.16954 35.6105 9.09612 35.6105 16.4069H35.9834C35.9834 8.89018 29.8898 2.79665 22.3731 2.79665V3.16954ZM31.3223 32.6274H14.9154V33.0003H31.3223V32.6274ZM31.5087 35.7969V32.8138H31.1359V35.7969H31.5087ZM14.9154 35.9834H31.3223V35.6105H14.9154V35.9834ZM14.7289 32.8138V35.7969H15.1018V32.8138H14.7289ZM17.8985 37.4749H28.3392V37.102H17.8985V37.4749ZM18.0849 40.2715V37.2885H17.712V40.2715H18.0849ZM28.3392 40.0851H17.8985V40.458H28.3392V40.0851ZM28.1528 37.2885V40.2715H28.5257V37.2885H28.1528Z" fill="currentColor"></path></svg>