<svg width="47" height="42" viewBox="0 0 47 42" fill="none" xmlns="http://www.w3.org/2000/svg"><path d="M22.1658 31.1359C15.2668 31.1359 9.67413 25.5432 9.67413 18.6442C9.67413 11.7453 15.2668 6.15261 22.1658 6.15261C29.0647 6.15261 34.6574 11.7453 34.6574 18.6442C34.6574 25.5432 29.0647 31.1359 22.1658 31.1359ZM22.1658 2.79665C13.4134 2.79665 6.31817 9.89186 6.31817 18.6442C6.31817 27.3966 13.4134 34.4918 22.1658 34.4918C30.9181 34.4918 38.0134 27.3966 38.0134 18.6442C38.0134 9.89186 30.9181 2.79665 22.1658 2.79665Z" fill="currentColor" stroke="currentColor" stroke-width="0.372885"></path><path d="M33.3523 34.119C30.1603 34.119 27.5726 31.5313 27.5726 28.3392C27.5726 25.1472 30.1603 22.5595 33.3523 22.5595C36.5443 22.5595 39.132 25.1472 39.132 28.3392C39.132 31.5313 36.5443 34.119 33.3523 34.119ZM33.3523 19.2036C28.3068 19.2036 24.2166 23.2938 24.2166 28.3392C24.2166 33.3847 28.3068 37.4749 33.3523 37.4749C38.3978 37.4749 42.488 33.3847 42.488 28.3392C42.488 23.2938 38.3978 19.2036 33.3523 19.2036Z" fill="currentColor" stroke="currentColor" stroke-width="0.372885"></path></svg>